<?xml version="1.0" standalone="no"?>
<!DOCTYPE svg PUBLIC "-//W3C//DTD SVG 20010904//EN"
 "http://www.w3.org/TR/2001/REC-SVG-20010904/DTD/svg10.dtd">
<svg version="1.0" xmlns="http://www.w3.org/2000/svg"
 width="400.000000pt" height="400.000000pt" viewBox="0 0 400.000000 400.000000"
 preserveAspectRatio="xMidYMid meet">
<metadata>
Created by potrace 1.14, written by Peter Selinger 2001-2017
</metadata>
<g transform="translate(0.000000,400.000000) scale(0.100000,-0.100000)"
fill="#000000" stroke="none">
<path d="M1598 3625 c-58 -21 -139 -77 -191 -134 -43 -45 -61 -77 -92 -156
-12 -30 -23 -77 -28 -120 -1 -11 -25 -39 -53 -62 -98 -80 -270 -287 -278 -334
-1 -8 -10 -29 -19 -46 -10 -18 -17 -35 -17 -38 0 -3 0 -6 -1 -7 0 -2 -2 -11
-5 -20 -2 -10 -6 -26 -8 -35 -3 -10 -5 -18 -6 -18 -9 0 -4 -123 4 -134 6 -8
10 -16 8 -18 -4 -6 30 -56 60 -88 25 -28 28 -36 24 -90 -4 -65 -14 -98 -26
-90 -10 6 -95 -61 -116 -92 -9 -14 -18 -40 -21 -57 -2 -17 -6 -36 -8 -43 -2
-6 -1 -14 3 -17 3 -4 7 -14 8 -24 0 -9 5 -37 9 -62 4 -25 9 -58 11 -75 9 -64
12 -80 14 -80 1 0 4 -18 6 -40 10 -89 12 -100 14 -100 1 0 3 -10 4 -23 2 -12
8 -28 14 -34 13 -13 2 -39 -29 -74 -11 -11 -27 -43 -37 -70 -10 -27 -33 -73
-52 -102 -32 -51 -38 -65 -44 -103 -1 -9 -19 -32 -39 -51 -31 -29 -69 -93 -71
-120 -1 -3 -4 -10 -9 -14 -4 -4 -7 -15 -7 -25 0 -10 -19 -34 -42 -53 -23 -20
-43 -43 -45 -51 -9 -44 -22 -73 -46 -107 -20 -26 -32 -129 -19 -153 3 -5 7
-20 8 -32 5 -41 43 -91 92 -119 26 -15 63 -40 82 -55 19 -15 48 -35 64 -43 26
-13 32 -13 63 4 34 18 79 18 97 0 5 -5 17 -5 28 1 10 5 22 8 26 5 5 -3 24 4
42 16 43 26 159 26 220 1 14 -6 43 -8 65 -6 22 3 139 6 260 8 121 2 234 5 252
7 27 4 34 0 44 -24 6 -15 22 -38 35 -52 23 -22 31 -24 107 -21 45 2 93 7 107
10 14 4 57 8 95 9 39 0 75 4 80 7 6 3 23 5 40 4 21 -1 37 7 55 29 14 16 25 32
25 35 1 23 20 32 59 26 51 -8 127 -8 186 0 25 3 52 6 60 6 8 1 20 6 26 11 11
8 29 -16 26 -34 -5 -21 80 -54 102 -40 6 4 19 7 29 8 9 1 20 3 25 4 4 1 27 3
52 4 52 2 100 15 100 26 0 4 18 20 40 35 40 28 41 28 88 13 57 -19 125 -17
146 4 8 9 12 18 9 22 -4 3 -2 6 3 7 5 0 18 3 29 5 28 7 73 14 120 19 96 10
117 14 140 29 19 12 24 23 21 41 -3 14 -1 27 3 29 13 9 0 134 -17 160 -3 6 -8
19 -9 28 -9 59 -102 169 -126 150 -19 -15 -79 -5 -91 15 -6 10 -11 21 -11 25
0 9 -37 43 -50 47 -29 9 -43 28 -40 57 1 17 -4 47 -13 65 -8 19 -16 39 -18 46
-6 32 -142 196 -155 188 -4 -3 -10 -1 -13 3 -3 5 -27 8 -53 7 -27 -1 -60 2
-76 8 -40 13 -97 87 -102 133 -9 70 -11 76 -42 103 -40 34 -88 117 -73 126 6
4 9 14 6 22 -3 8 -3 20 1 26 4 7 9 19 11 27 6 25 4 172 -3 210 -10 56 -12 91
-5 95 4 2 5 48 4 102 -3 124 -14 208 -29 233 -4 6 -8 26 -11 44 -3 28 1 37 24
52 60 39 89 91 86 152 -2 45 -21 102 -38 114 -7 5 -38 -21 -75 -60 -65 -68
-94 -117 -100 -173 -1 -4 -11 -9 -24 -13 -13 -3 -41 -13 -63 -22 -21 -10 -43
-18 -49 -19 -5 -1 -12 -3 -15 -4 -3 -2 -14 -4 -25 -6 -11 -2 -31 -6 -45 -9
-51 -12 -133 -23 -230 -29 -25 -2 -58 1 -75 6 -47 14 -50 15 -57 13 -4 0 -23
15 -43 34 -33 32 -61 80 -70 120 -2 8 -4 15 -5 15 -1 0 -3 18 -5 40 -3 37 -11
76 -15 83 -2 1 -4 7 -5 12 -1 6 -3 11 -5 13 -1 1 -3 10 -5 20 -2 10 -10 28
-18 41 -15 23 -5 62 13 51 5 -3 11 -1 15 5 4 6 10 8 14 5 14 -8 97 72 115 110
21 44 27 68 30 125 5 87 3 87 -131 56 -59 -14 -173 -101 -173 -132 0 -21 -18
-17 -59 14 -20 16 -44 32 -54 35 -16 6 -17 8 -2 31 9 14 16 28 16 31 -2 8 80
117 98 133 26 21 93 64 105 67 28 6 76 28 76 33 0 11 -20 38 -20 28 0 -5 -6
-4 -13 2 -7 6 -22 9 -32 8 -11 -2 -25 1 -32 6 -7 5 -18 6 -25 2 -7 -4 -22 -9
-34 -10 -12 -1 -43 -12 -70 -25 -27 -12 -49 -20 -49 -18 -1 2 -20 -11 -43 -29
-32 -26 -42 -30 -42 -17 0 28 27 70 69 108 47 43 38 62 -21 42z"/>
<path d="M3965 180 c-3 -4 -20 -6 -40 -4 -19 1 -35 -2 -35 -7 0 -5 25 -9 55
-9 39 0 55 4 55 13 0 14 -28 19 -35 7z"/>
</g>
</svg>
